<?xml version="1.0" encoding="UTF-8" standalone="no"?>
<!-- Created with Inkscape (http://www.inkscape.org/) -->

<svg
   version="1.1"
   id="svg975"
   xml:space="preserve"
   width="128"
   height="128"
   viewBox="0 0 682.66669 682.66669"
   xmlns="http://www.w3.org/2000/svg"
   xmlns:svg="http://www.w3.org/2000/svg"><defs
     id="defs979"><clipPath
       clipPathUnits="userSpaceOnUse"
       id="clipPath989"><path
         d="M 0,512 H 512 V 0 H 0 Z"
         id="path987" /></clipPath></defs><g
     id="g981"
     transform="matrix(1.3333333,0,0,-1.3333333,0,682.66667)"><g
       id="g983"><g
         id="g985"
         clip-path="url(#clipPath989)"><g
           id="g991"
           transform="translate(444.3896,251.4302)"><path
             d="m 0,0 c -75.121,65.737 -67.495,59.063 -68.359,59.82 v 45.9 c 0,54.33 21.58,106.43 60,144.85 C -65.01,231.68 -109.5,187.24 -128.38,130.58 c -18.89,9.44 -39.45,13.99 -60.01,13.99 -20.56,0 -41.11,-4.56 -60,-14 -18.89,56.66 -63.339,101.11 -120,120 38.42,-38.42 60,-90.52 60,-144.85 V 59.84 c -1.562,-1.367 12.023,10.52 -68.39,-59.84 -27.32,-23.91 -27.32,-66.41 0,-90.31 l 145.33,-133.02 86.07,-0.04 L 0,-90.31 c 27.32,23.9 27.32,66.4 0,90.31"
             style="fill:#754ffe;fill-opacity:1;fill-rule:nonzero;stroke:none"
             id="path993" /></g><g
           id="g995"
           transform="translate(320.1904,171.6401)"><path
             d="m 0,0 c 26.09,-44.92 16.229,-107.7 -21.181,-143.58 -11.965,-11.966 -27.276,-18.06 -43.009,-18.06 -27.434,0 -41.901,17.52 -43.06,18.1 -37.32,35.85 -47.13,98.43 -21.17,143.32 9.79,16.92 19.66,28.14 24.149,33.32 28.789,33.21 33.258,64.297 40.081,81.26 C -57.373,97.409 -52.904,66.317 -24.11,33.1 -19.65,27.96 -9.79,16.84 0,0"
             style="fill:#754ffe;fill-opacity:1;fill-rule:nonzero;stroke:none"
             id="path997" /></g><g
           id="g999"
           transform="translate(436.0303,502)"><path
             d="M 0,0 C 37.56,-56.34 44.979,-133.56 19.83,-196.43 L 0.819,-243.97 -60,-190.75 v 45.9 C -60,-90.52 -38.42,-38.42 0,0"
             style="fill:#754ffe;fill-opacity:1;fill-rule:nonzero;stroke:none"
             id="path1001" /></g><g
           id="g1003"
           transform="translate(264,115)"><path
             d="m 0,0 c 12.68,-0.02 22,-1.2 22,-15 0,-16.57 -13.43,-30 -30,-30 -16.57,0 -30,13.43 -30,30 0,12.69 7.87,14.73 19,15 z"
             style="fill:#918787;fill-opacity:1;fill-rule:nonzero;stroke:none"
             id="path1005" /></g><g
           id="g1007"
           transform="translate(136,357.1499)"><path
             d="M 0,0 V -45.88 L -60.82,-99.1 -79.83,-51.58 C -104.98,11.29 -97.56,88.51 -60,144.85 -21.58,106.43 0,54.33 0,0"
             style="fill:#754ffe;fill-opacity:1;fill-rule:nonzero;stroke:none"
             id="path1009" /></g><g
           id="g1011"
           transform="translate(346,266)"><path
             d="m 0,0 c 5.52,0 10,-4.48 10,-10 0,-5.52 -4.48,-10 -10,-10 -5.52,0 -10,4.48 -10,10 0,5.52 4.48,10 10,10"
             style="fill:#ffffff;fill-opacity:1;fill-rule:nonzero;stroke:none"
             id="path1013" /></g><g
           id="g1015"
           transform="translate(166,266)"><path
             d="m 0,0 c 5.52,0 10,-4.48 10,-10 0,-5.52 -4.48,-10 -10,-10 -5.52,0 -10,4.48 -10,10 0,5.52 4.48,10 10,10"
             style="fill:#ffffff;fill-opacity:1;fill-rule:nonzero;stroke:none"
             id="path1017" /></g><g
           id="g1019"
           transform="translate(212.9399,28.1001)"><path
             d="m 0,0 -145.33,133.02 c -27.32,23.9 -27.32,66.4 0,90.31 l 7.57,6.62 60.82,53.22 v 45.88 c 0,54.33 -21.58,106.43 -60,144.85"
             style="fill:none;stroke:#ffffff;stroke-width:20;stroke-linecap:round;stroke-linejoin:round;stroke-miterlimit:10;stroke-dasharray:none;stroke-opacity:1"
             id="path1021" /></g><g
           id="g1023"
           transform="translate(75.1802,258.0498)"><path
             d="m 0,0 -19.01,47.52 c -25.15,62.87 -17.73,140.09 19.83,196.43 56.66,-18.89 101.11,-63.34 120,-120 18.89,9.44 39.44,14 60,14 20.559,0 41.12,-4.55 60.01,-13.99 18.879,56.66 63.37,101.1 120.02,119.99 37.56,-56.34 44.98,-133.56 19.83,-196.43 L 361.669,-0.02"
             style="fill:none;stroke:#ffffff;stroke-width:20;stroke-linecap:round;stroke-linejoin:round;stroke-miterlimit:10;stroke-dasharray:none;stroke-opacity:1"
             id="path1025" /></g><g
           id="g1027"
           transform="translate(216.4902,24.8501)"><path
             d="m 0,0 c 22.62,-19.8 56.399,-19.8 79.02,0 1.12,0.98 2.22,1.99 3.299,3.02 0.071,0.06 0.131,0.12 0.201,0.19 37.41,35.88 47.27,98.66 21.18,143.58 -9.79,16.84 -19.65,27.96 -24.11,33.1 -13.8,15.92 -24.5,34.53 -31.29,54.9 l -8.79,26.36 -8.79,-26.36 C 23.93,214.42 13.23,195.81 -0.57,179.89 -5.06,174.71 -14.93,163.49 -24.72,146.57 -50.68,101.68 -40.87,39.1 -3.55,3.25 -3.53,3.24 -3.52,3.22 -3.5,3.2 -2.36,2.11 -1.19,1.04 0,0 Z"
             style="fill:none;stroke:#ffffff;stroke-width:20;stroke-linecap:round;stroke-linejoin:round;stroke-miterlimit:10;stroke-dasharray:none;stroke-opacity:1"
             id="path1029" /></g><g
           id="g1031"
           transform="translate(264,115)"><path
             d="m 0,0 h -19 c -11.13,-0.27 -19,-2.31 -19,-15 0,-16.57 13.43,-30 30,-30 16.57,0 30,13.43 30,30 0,13.8 -9.32,14.98 -22,15 z"
             style="fill:none;stroke:#ffffff;stroke-width:20;stroke-linecap:round;stroke-linejoin:round;stroke-miterlimit:10;stroke-dasharray:none;stroke-opacity:1"
             id="path1033" /></g><g
           id="g1035"
           transform="translate(256,396)"><path
             d="M 0,0 V -110"
             style="fill:none;stroke:#ffffff;stroke-width:20;stroke-linecap:round;stroke-linejoin:round;stroke-miterlimit:10;stroke-dasharray:none;stroke-opacity:1"
             id="path1037" /></g><g
           id="g1039"
           transform="translate(416,126)"><path
             d="m 0,0 c 0,-5.523 -4.478,-10 -10,-10 -5.523,0 -10,4.477 -10,10 0,5.523 4.477,10 10,10 C -4.478,10 0,5.523 0,0"
             style="fill:#ffffff;fill-opacity:1;fill-rule:nonzero;stroke:none"
             id="path1041" /></g><g
           id="g1043"
           transform="translate(436.0303,502)"><path
             d="m 0,0 c -38.42,-38.42 -60,-90.52 -60,-144.85 v -45.9 l 60.819,-53.22 7.54,-6.6 c 27.321,-23.91 27.321,-66.41 0,-90.31 l -5.201,-4.761"
             style="fill:none;stroke:#ffffff;stroke-width:20;stroke-linecap:round;stroke-linejoin:round;stroke-miterlimit:10;stroke-dasharray:none;stroke-opacity:1"
             id="path1045" /></g><g
           id="g1047"
           transform="translate(372.8281,95.6226)"><path
             d="M 0,0 -73.818,-67.563"
             style="fill:none;stroke:#ffffff;stroke-width:20;stroke-linecap:round;stroke-linejoin:round;stroke-miterlimit:10;stroke-dasharray:none;stroke-opacity:1"
             id="path1049" /></g></g></g></g></svg>
